<svg width="107" height="39" viewBox="0 0 107 39" fill="none" xmlns="http://www.w3.org/2000/svg">
<path fill-rule="evenodd" clip-rule="evenodd" d="M38.9881 20.1841C40.5001 20.1841 41.7481 20.7841 42.7561 21.9721C43.7881 23.1721 44.2921 24.7321 44.2921 26.6881C44.2921 28.8601 43.7041 30.5761 42.5161 31.8361C41.4601 32.9641 40.1401 33.5161 38.5801 33.5161C36.8881 33.5161 35.6761 32.9161 34.9321 31.7041V38.4121H32.0881V24.6481C32.0881 23.2801 32.0521 21.8881 31.9801 20.4481H34.4761L34.6321 22.4761H34.6801C35.6281 20.9521 37.0681 20.1841 38.9881 20.1841ZM24.3 20.1841C25.812 20.1841 27.06 20.7841 28.068 21.9721C29.1 23.1721 29.604 24.7321 29.604 26.6881C29.604 28.8601 29.016 30.5761 27.828 31.8361C26.772 32.9641 25.452 33.5161 23.892 33.5161C22.2 33.5161 20.988 32.9161 20.244 31.7041V38.4121H17.4V24.6481C17.4 23.2801 17.364 21.8881 17.292 20.4481H19.788L19.944 22.4761H19.992C20.94 20.9521 22.38 20.1841 24.3 20.1841ZM78.0721 20.196C79.9441 20.196 81.4561 20.82 82.5961 22.068C83.6881 23.268 84.2281 24.828 84.2281 26.736C84.2281 28.704 83.6641 30.312 82.5481 31.572C81.3721 32.868 79.8121 33.516 77.8681 33.516C75.9961 33.516 74.4961 32.892 73.3801 31.656C72.2641 30.42 71.7121 28.848 71.7121 26.952C71.7121 24.972 72.2881 23.352 73.4281 22.092C74.5801 20.832 76.1281 20.196 78.0721 20.196ZM56.0521 15.2521C57.6601 15.2521 59.0041 15.5281 60.0721 16.0921L59.3521 18.3961C58.3441 17.8561 57.2161 17.5801 55.9441 17.5801C54.9481 17.5801 54.1561 17.8321 53.5921 18.3121C53.1241 18.7561 52.8841 19.2841 52.8841 19.9201C52.8841 20.6161 53.1601 21.2041 53.7001 21.6481C54.1681 22.0681 55.0321 22.5241 56.2801 23.0161C57.8041 23.6281 58.9201 24.3481 59.6401 25.1761C60.3721 26.0041 60.7321 27.0361 60.7321 28.2601C60.7321 29.7721 60.2041 30.9961 59.1601 31.9441C58.0081 32.9761 56.4001 33.4921 54.3361 33.4921C52.4281 33.4921 50.9041 33.1201 49.7521 32.3881L50.4121 30.0241C51.6601 30.7561 53.0281 31.1281 54.5161 31.1281C55.5841 31.1281 56.4241 30.8881 57.0121 30.4081C57.6121 29.9281 57.9121 29.2801 57.9121 28.4761C57.9121 27.7561 57.6601 27.1561 57.1801 26.6641C56.6881 26.1721 55.8721 25.7161 54.7321 25.2961C51.6001 24.1321 50.0521 22.4401 50.0521 20.2201C50.0521 18.7681 50.6041 17.5801 51.6961 16.6441C52.7881 15.7201 54.2401 15.2521 56.0521 15.2521ZM67.0081 17.2681V20.4481H70.1401V22.5841H67.0081V28.7881C67.0081 30.3601 67.5601 31.1521 68.6641 31.1521C69.1681 31.1521 69.5881 31.1041 69.9241 31.0201L70.0081 33.1801C69.4441 33.3841 68.7121 33.4921 67.8001 33.4921C66.6721 33.4921 65.8081 33.1441 65.1721 32.4601C64.5361 31.7761 64.2241 30.6241 64.2241 29.0161V22.5721H62.3641V20.4481H64.2241V18.1081L67.0081 17.2681ZM100.848 20.148C102.684 20.148 104.088 20.832 105.024 22.2C105.78 23.304 106.164 24.636 106.164 26.232C106.164 26.736 106.128 27.168 106.056 27.516H97.5359C97.5719 28.776 97.9799 29.748 98.7719 30.408C99.4919 30.996 100.416 31.296 101.556 31.296C102.816 31.296 103.968 31.092 105 30.696L105.444 32.664C104.232 33.192 102.804 33.456 101.16 33.456C99.1799 33.456 97.6202 32.868 96.4919 31.704C95.3642 30.54 94.8002 28.968 94.8002 27.012C94.8002 25.092 95.3279 23.484 96.3839 22.2C97.4882 20.832 98.9762 20.148 100.848 20.148ZM92.748 20.184C93.012 20.184 93.252 20.208 93.456 20.232L93.468 22.944C93.192 22.896 92.892 22.872 92.568 22.872C91.572 22.872 90.792 23.244 90.252 24C89.784 24.66 89.544 25.512 89.544 26.52V33.228H86.7V24.468C86.7 22.992 86.676 21.648 86.616 20.448H89.088L89.196 22.896H89.28C89.58 22.056 90.048 21.372 90.696 20.868C91.332 20.412 92.016 20.184 92.748 20.184ZM9.228 15.5041L14.952 33.2281H11.928L10.272 28.0201H4.512L2.94 33.2281H0L5.7 15.5041H9.228ZM77.9761 22.26C76.8361 22.26 75.9601 22.764 75.3721 23.784C74.8561 24.624 74.6161 25.644 74.6161 26.856C74.6161 28.032 74.8681 29.04 75.3721 29.868C75.9841 30.888 76.8481 31.392 77.9521 31.392C79.0321 31.392 79.8841 30.876 80.5081 29.844C81.0241 28.98 81.2881 27.972 81.2881 26.796C81.2881 25.62 81.0361 24.624 80.5321 23.784C79.9321 22.764 79.0801 22.26 77.9761 22.26ZM38.0881 22.4521C37.3921 22.4521 36.7561 22.6921 36.1801 23.1481C35.6161 23.6161 35.2441 24.2161 35.0641 24.9721C34.9801 25.3201 34.9321 25.6081 34.9321 25.8361V27.9721C34.9321 28.8961 35.2201 29.6881 35.7841 30.3241C36.3481 30.9601 37.0921 31.2841 38.0041 31.2841C39.0721 31.2841 39.9121 30.8641 40.5001 30.0481C41.1121 29.2201 41.4001 28.1401 41.4001 26.7841C41.4001 25.5361 41.1241 24.5161 40.5601 23.7121C39.9481 22.8721 39.1201 22.4521 38.0881 22.4521ZM23.4 22.4521C22.704 22.4521 22.068 22.6921 21.492 23.1481C20.928 23.6161 20.544 24.2161 20.376 24.9721C20.292 25.3201 20.244 25.6081 20.244 25.8361V27.9721C20.244 28.8961 20.532 29.6881 21.096 30.3241C21.66 30.9601 22.404 31.2841 23.316 31.2841C24.384 31.2841 25.212 30.8641 25.812 30.0481C26.412 29.2201 26.712 28.1401 26.712 26.7841C26.712 25.5361 26.436 24.5161 25.872 23.7121C25.26 22.8721 24.432 22.4521 23.4 22.4521ZM7.392 17.8801H7.332C7.152 18.6361 6.876 19.7521 6.492 21.2161L5.016 25.8361H9.78L8.28 21.2161C8.124 20.7361 7.824 19.6321 7.392 17.8801ZM100.644 22.128C99.7202 22.128 98.9642 22.512 98.3882 23.28C97.9202 23.892 97.6322 24.636 97.5479 25.488L103.452 25.5C103.476 24.66 103.284 23.928 102.9 23.316C102.408 22.524 101.652 22.128 100.644 22.128ZM64.5001 2.76006C66.3121 2.76006 67.5241 4.06806 67.5241 5.97606C67.5241 7.93206 66.2761 9.31206 64.3921 9.31206C62.5561 9.31206 61.3681 7.94406 61.3681 6.08406C61.3681 4.14006 62.5801 2.76006 64.5001 2.76006ZM40.2841 0V3.804H40.3081C40.7281 3.108 41.3881 2.76 42.3121 2.76C43.8241 2.76 44.8801 4.056 44.8801 5.94C44.8801 7.884 43.7041 9.312 42.1081 9.312C41.2201 9.312 40.5601 8.94 40.1281 8.196H40.1041L40.0201 9.168H38.8321C38.8681 8.664 38.8801 8.1 38.8801 7.476V0H40.2841ZM19.176 2.77206C20.82 2.77206 21.648 3.63606 21.648 5.37606V7.69206C21.648 8.32806 21.672 8.82006 21.744 9.19206L20.484 9.16806L20.376 8.44806H20.34C19.908 9.02406 19.296 9.31206 18.504 9.31206C17.376 9.31206 16.584 8.52006 16.584 7.46406C16.584 5.91606 17.928 5.11206 20.256 5.11206V4.99206C20.256 4.16406 19.812 3.75606 18.948 3.75606C18.324 3.75606 17.784 3.91206 17.304 4.22406L17.016 3.31206C17.592 2.95206 18.324 2.77206 19.176 2.77206ZM33.9721 2.76006C35.6161 2.76006 36.4441 3.62406 36.4441 5.36406V7.68006C36.4441 8.31606 36.4681 8.80806 36.5281 9.18006H35.2801V9.16806L35.1721 8.44806H35.1361C34.7041 9.02406 34.0921 9.31206 33.3001 9.31206C32.1721 9.31206 31.3801 8.52006 31.3801 7.46406C31.3801 5.91606 32.7241 5.11206 35.0521 5.11206V4.99206C35.0521 4.16406 34.6081 3.75606 33.7441 3.75606C33.1201 3.75606 32.5801 3.91206 32.1001 4.22406L31.8121 3.30006C32.3881 2.94006 33.1201 2.76006 33.9721 2.76006ZM82.6321 1.32006V2.88006H84.1681V3.93606H82.6201V6.98406C82.6201 7.76406 82.8961 8.14806 83.4361 8.14806C83.6761 8.14806 83.8921 8.12406 84.0601 8.08806L84.0961 9.14406C83.8201 9.25206 83.4601 9.30006 83.0161 9.30006C81.9121 9.30006 81.2641 8.68806 81.2641 7.10406V3.93606H80.3521V2.89206H81.2641V1.74006L82.6321 1.32006ZM96.12 2.736C97.716 2.736 98.736 3.924 98.736 5.724C98.736 5.976 98.724 6.192 98.676 6.36H94.488C94.512 7.548 95.304 8.22 96.468 8.22C97.092 8.22 97.656 8.112 98.16 7.92L98.376 8.892C97.788 9.156 97.092 9.276 96.276 9.276C94.308 9.276 93.144 8.04 93.144 6.108C93.144 4.188 94.332 2.736 96.12 2.736ZM53.376 2.736C54.972 2.736 55.992 3.924 55.992 5.724C55.992 5.976 55.98 6.192 55.932 6.36H51.744C51.768 7.548 52.56 8.22 53.724 8.22C54.348 8.22 54.912 8.112 55.416 7.92L55.632 8.892C55.044 9.156 54.348 9.276 53.532 9.276C51.564 9.276 50.4 8.04 50.4 6.108C50.4 4.188 51.588 2.736 53.376 2.736ZM87.492 6.00815e-05V3.76806H87.516C87.96 3.08406 88.584 2.74806 89.4 2.74806C90.732 2.74806 91.548 3.78006 91.548 5.42406V9.16806H90.156V5.58006C90.156 4.45206 89.724 3.88806 88.884 3.88806C88.164 3.88806 87.492 4.38006 87.492 5.37606V9.15606H86.1V6.00815e-05H87.492ZM72.84 2.74806C74.16 2.74806 75.024 3.75606 75.024 5.40006V9.16806H73.632V5.55606C73.632 4.44006 73.2 3.88806 72.36 3.88806C71.532 3.88806 70.968 4.59606 70.968 5.42406V9.15606H69.576V4.68006C69.576 4.12806 69.564 3.52806 69.528 2.88006H70.752L70.812 3.85206H70.848C71.22 3.18006 71.988 2.74806 72.84 2.74806ZM10.8841 2.88006L11.9521 6.20406C12.1321 6.75606 12.2881 7.28406 12.4081 7.78806H12.4441C12.5521 7.33206 12.7081 6.80406 12.9001 6.20406L13.9561 2.88006H15.4201L13.0441 9.16806H11.6881L9.38409 2.88006H10.8841ZM5.58012 0.45603L8.41212 9.16803H6.92412L6.10812 6.61203H3.27612L2.49612 9.16803H1.05612L3.85212 0.45603H5.58012ZM48.3361 6.00815e-05V9.15606H46.9441V6.00815e-05H48.3361ZM29.3521 6.00815e-05V9.15606H27.9601V6.00815e-05H29.3521ZM25.4761 2.88006V9.15606H24.0841V2.88006H25.4761ZM35.0881 6.03606C33.5401 6.03606 32.7601 6.40806 32.7601 7.30806C32.7601 7.96806 33.1561 8.29206 33.7201 8.29206C34.4281 8.29206 35.0881 7.75206 35.0881 7.00806V6.03606ZM20.292 6.03606C18.744 6.03606 17.964 6.40806 17.964 7.30806C17.964 7.96806 18.36 8.29206 18.924 8.29206C19.632 8.29206 20.292 7.75206 20.292 7.00806V6.03606ZM64.4521 3.78006C63.4441 3.78006 62.7961 4.72806 62.7961 6.03606C62.7961 7.33206 63.4561 8.26806 64.4401 8.26806C65.4241 8.26806 66.0841 7.26006 66.0841 6.00006C66.0721 4.72806 65.4361 3.78006 64.4521 3.78006ZM41.8201 3.852C41.0161 3.852 40.2841 4.548 40.2841 5.52V6.624C40.2841 7.488 40.9441 8.196 41.7961 8.196C42.8401 8.196 43.4641 7.344 43.4641 5.988C43.4641 4.716 42.8161 3.852 41.8201 3.852ZM4.68012 1.60803H4.65612C4.56012 1.98003 4.44012 2.52003 4.23612 3.25203L3.51612 5.53203H5.85612L5.12412 3.25203C5.05212 3.02403 4.90812 2.47203 4.68012 1.60803ZM96.024 3.708C95.22 3.708 94.584 4.404 94.5 5.364H97.404C97.404 4.392 96.912 3.708 96.024 3.708ZM53.28 3.708C52.476 3.708 51.852 4.404 51.756 5.364H54.66C54.66 4.392 54.168 3.708 53.28 3.708ZM24.7801 0.18006C25.2601 0.18006 25.6441 0.52806 25.6321 1.00806C25.6321 1.51206 25.2721 1.84806 24.7561 1.84806C24.2881 1.84806 23.9281 1.48806 23.9281 1.00806C23.9281 0.52806 24.3001 0.18006 24.7801 0.18006Z" fill="black"/>
</svg>
