<svg width="127" height="42" viewBox="0 0 127 42" fill="none" xmlns="http://www.w3.org/2000/svg">
<path fill-rule="evenodd" clip-rule="evenodd" d="M1.78091 2.33081C2.68598 1.42574 3.74285 0.9729 5.1 0.9729C5.70466 0.9729 6.30877 1.1241 6.91207 1.42575C7.51323 1.72633 7.96846 2.02892 8.27247 2.48492L8.28474 2.50334L8.26909 2.51899L7.51909 3.26899L7.49776 3.29032L7.47892 3.26677C6.88507 2.52446 6.1436 2.2269 5.1 2.2269C4.20567 2.2269 3.31456 2.52492 2.72108 3.26677L2.71729 3.27151L2.71687 3.27098C1.97543 3.86414 1.677 4.75487 1.677 5.7999C1.677 6.84493 1.97543 7.73567 2.71687 8.32882C3.46575 8.92792 4.20958 9.3729 5.1 9.3729C5.62236 9.3729 6.06874 9.29829 6.47728 9.13116C6.88579 8.96404 7.25788 8.70384 7.63091 8.33081C8.07098 7.89073 8.36577 7.30639 8.37287 6.5769H5.1H5.073V6.5499V5.3499V5.3229H5.1H9.45H9.477V5.3499V5.9499C9.477 7.15406 9.17594 8.21214 8.41909 8.96899C7.51402 9.87407 6.45715 10.3269 5.1 10.3269C3.74285 10.3269 2.68598 9.87407 1.78091 8.96899C0.875835 8.06392 0.423 7.00705 0.423 5.6499C0.423 4.29275 0.875835 3.23588 1.78091 2.33081ZM42.1309 2.33081C43.036 1.42574 44.0929 0.9729 45.45 0.9729C46.8071 0.9729 47.864 1.42574 48.7691 2.33081C49.6742 3.23588 50.127 4.29275 50.127 5.6499C50.127 7.00705 49.6742 8.06392 48.7691 8.96899C47.864 9.87407 46.8071 10.3269 45.45 10.3269C44.0929 10.3269 43.036 9.87407 42.1309 8.96899C41.2258 8.06392 40.773 7.00705 40.773 5.6499C40.773 4.29275 41.2258 3.23588 42.1309 2.33081ZM11.073 1.1229H11.1H16.35H16.377V1.1499V2.1999V2.2269H16.35H12.327V5.0229H16.05H16.077V5.0499V6.0999V6.1269H16.05H12.327V8.9229H16.35H16.377V8.9499V10.1499V10.1769H16.35H11.1H11.073V10.1499V1.1499V1.1229ZM17.523 1.1229H17.55H23.85H23.877V1.1499V2.1999V2.2269H23.85H21.327V10.1499V10.1769H21.3H20.1H20.073V10.1499V2.2269H17.55H17.523V2.1999V1.1499V1.1229ZM28.173 1.1229H28.2H29.4H29.427V1.1499V10.1499V10.1769H29.4H28.2H28.173V10.1499V1.1499V1.1229ZM30.723 1.1229H30.75H36.9H36.927V1.1499V2.1999V2.2269H36.9H34.377V10.1229H34.5V10.1499V10.1769H34.35H34.323H33.3H33.273V10.1499V2.2269H30.75H30.723V2.1999V1.1499V1.1229ZM51.723 1.1229H51.75H53.1H53.1151L53.123 1.13572L57.423 8.10473V1.1499V1.1229H57.45H58.65H58.677V1.1499V10.1499V10.1769H58.65H57.45H57.4351L57.4272 10.1643L52.827 2.89308V10.1499V10.1769H52.8H51.75H51.723V10.1499V1.1499V1.1229ZM45.45 2.0769C44.5557 2.0769 43.6646 2.37492 43.0711 3.11677L43.0692 3.11911L43.0691 3.11899C42.4737 3.71442 42.027 4.60773 42.027 5.6499C42.027 6.69493 42.3254 7.58567 43.0669 8.17882L43.0692 8.18069L43.0691 8.18081C43.665 8.77672 44.5584 9.2229 45.45 9.2229C46.3443 9.2229 47.2354 8.92488 47.8289 8.18303L47.8308 8.18069L47.8309 8.18081C48.4263 7.58538 48.873 6.69207 48.873 5.6499C48.873 4.60487 48.5746 3.71414 47.8331 3.12098L47.8308 3.11911L47.8309 3.11899C47.235 2.52308 46.3416 2.0769 45.45 2.0769ZM98.7 35.6498H101.55V16.8998H98.7V35.6498ZM123.9 23.6498L120.75 31.7498H120.6L117.3 23.6498H114.3L119.25 35.0498L116.4 41.3498H119.25L126.9 23.6498H123.9ZM108.15 33.5498C107.25 33.5498 105.9 33.0998 105.9 31.8998C105.9 30.3998 107.55 29.9498 108.9 29.9498C109.979 29.9498 110.573 30.1923 111.227 30.4592C111.3 30.4892 111.374 30.5195 111.45 30.5498C111.15 32.3498 109.65 33.5498 108.15 33.5498ZM108.45 23.1998C106.35 23.1998 104.25 24.0998 103.5 26.0498L106.05 27.0998C106.65 26.0498 107.55 25.7498 108.6 25.7498C110.1 25.7498 111.45 26.6498 111.6 28.1498V28.2998C111.15 27.9998 109.95 27.5498 108.75 27.5498C106.05 27.5498 103.35 29.0498 103.35 31.7498C103.35 34.2998 105.6 35.9498 108 35.9498C109.95 35.9498 110.85 35.0498 111.6 34.1498H111.75V35.6498H114.45V28.4498C114.15 25.1498 111.6 23.1998 108.45 23.1998ZM91.2 25.8998H87.15V19.4498H91.2C93.3 19.4498 94.5 21.2498 94.5 22.5998C94.35 24.2498 93.15 25.8998 91.2 25.8998ZM91.05 16.8998H84.3V35.6498H87.15V28.5998H91.05C94.2 28.5998 97.2 26.3498 97.2 22.7498C97.2 19.1498 94.2 16.8998 91.05 16.8998ZM54.45 33.5498C52.5 33.5498 50.85 31.8998 50.85 29.6498C50.85 27.3998 52.5 25.7498 54.45 25.7498C56.4 25.7498 57.9 27.3998 57.9 29.6498C57.9 31.8998 56.4 33.5498 54.45 33.5498ZM57.75 24.6998C57 23.9498 55.8 23.1998 54.3 23.1998C51.15 23.1998 48.15 26.0498 48.15 29.6498C48.15 33.2498 51 35.9498 54.3 35.9498C55.8 35.9498 57 35.1998 57.6 34.4498H57.75V35.3498C57.75 37.7498 56.4 39.0998 54.3 39.0998C52.65 39.0998 51.45 37.8998 51.15 36.8498L48.75 37.8998C49.5 39.5498 51.3 41.6498 54.45 41.6498C57.75 41.6498 60.45 39.6998 60.45 35.0498V23.6498H57.75V24.6998ZM62.25 35.6498H65.1V16.8998H62.25V35.6498ZM69.3 29.4998C69.3 27.0998 71.25 25.7498 72.6 25.7498C73.65 25.7498 74.7 26.3498 75 27.0998L69.3 29.4998ZM78 27.3998C77.4 25.8998 75.9 23.3498 72.6 23.3498C69.3 23.3498 66.6 25.8998 66.6 29.7998C66.6 33.3998 69.3 36.2498 72.9 36.2498C75.75 36.2498 77.55 34.4498 78.15 33.3998L76.05 31.8998C75.3 32.9498 74.4 33.6998 72.9 33.6998C71.4 33.6998 70.5 33.0998 69.75 31.7498L78.3 28.1498L78 27.3998ZM9.9 25.2998V27.9998H16.35C16.2 29.4998 15.6 30.6998 14.85 31.4498C13.95 32.3498 12.45 33.3998 9.9 33.3998C5.85 33.3998 2.85 30.2498 2.85 26.1998C2.85 22.1498 6 18.9998 9.9 18.9998C12 18.9998 13.65 19.8998 14.85 20.9498L16.8 18.9998C15.15 17.4998 13.05 16.2998 10.05 16.2998C4.65 16.2998 0 20.7998 0 26.1998C0 31.5998 4.65 36.0998 10.05 36.0998C13.05 36.0998 15.15 35.1998 16.95 33.2498C18.75 31.4498 19.35 28.8998 19.35 26.9498C19.35 26.3498 19.35 25.7498 19.2 25.2998H9.9ZM26.55 33.5498C24.6 33.5498 22.95 31.8998 22.95 29.6498C22.95 27.3998 24.6 25.7498 26.55 25.7498C28.5 25.7498 30.15 27.2498 30.15 29.6498C30.15 31.8998 28.5 33.5498 26.55 33.5498ZM26.55 23.3498C22.95 23.3498 20.1 26.0498 20.1 29.7998C20.1 33.3998 22.95 36.2498 26.55 36.2498C30.15 36.2498 33 33.5498 33 29.7998C33 25.8998 30.15 23.3498 26.55 23.3498ZM40.5 33.5498C38.55 33.5498 36.9 31.8998 36.9 29.6498C36.9 27.3998 38.55 25.7498 40.5 25.7498C42.45 25.7498 44.1 27.2498 44.1 29.6498C44.1 31.8998 42.45 33.5498 40.5 33.5498ZM40.5 23.3498C36.9 23.3498 34.05 26.0498 34.05 29.7998C34.05 33.3998 36.9 36.2498 40.5 36.2498C44.1 36.2498 46.95 33.5498 46.95 29.7998C46.95 25.8998 44.1 23.3498 40.5 23.3498Z" fill="white"/>
</svg>
